<?xml version="1.0" encoding="UTF-8" standalone="no"?>
<svg
   xmlns:dc="http://purl.org/dc/elements/1.1/"
   xmlns:cc="http://creativecommons.org/ns#"
   xmlns:rdf="http://www.w3.org/1999/02/22-rdf-syntax-ns#"
   xmlns:svg="http://www.w3.org/2000/svg"
   xmlns="http://www.w3.org/2000/svg"
   viewBox="0 0 557.40808 118.66836"
   height="118.66836"
   width="557.40808"
   xml:space="preserve"
   id="svg2"
   version="1.1"><metadata
     id="metadata8"><rdf:RDF><cc:Work
         rdf:about=""><dc:format>image/svg+xml</dc:format><dc:type
           rdf:resource="http://purl.org/dc/dcmitype/StillImage" /><dc:title></dc:title></cc:Work></rdf:RDF></metadata><defs
     id="defs6" /><g
     transform="matrix(1.3333333,0,0,-1.3333333,-206.01171,889.59922)"
     id="g10"><g
       transform="translate(363.338,582.932)"
       id="g12"><g
         id="g14"><g
           id="g16" /><g
           id="g18"><g
             id="g20"><g
               id="g22"><g
                 id="g24"><g
                   transform="translate(-211.305,-2.681)"
                   id="g26"><g
                     transform="translate(10.405)"
                     id="g28"><g
                       id="g30"><g
                         id="g32"><g
                           transform="translate(-8.26)"
                           id="g34"><g
                             id="g36"><g
                               transform="translate(-154.178,-580.251)"
                               id="g38"><text
                                 id="text42"
                                 style="font-variant:normal;font-weight:normal;font-size:9.96259975px;font-family:CMR10;-inkscape-font-specification:CMR10;writing-mode:lr-tb;fill:#000000;fill-opacity:1;fill-rule:nonzero;stroke:none"
                                 transform="matrix(1,0,0,-1,154.178,580.251)"><tspan
                                   id="tspan40"
                                   y="0"
                                   x="0 7.6104302 12.59173">Das</tspan></text>
<g
                                 transform="translate(154.178,580.251)"
                                 id="g44" /></g></g><g
                             transform="translate(8.26)"
                             id="g46" /></g></g></g><g
                       transform="translate(47.06)"
                       id="g48"><g
                         id="g50"><g
                           id="g52"><g
                             transform="translate(-22.554)"
                             id="g54"><g
                               id="g56"><g
                                 transform="translate(-186.944,-580.251)"
                                 id="g58"><text
                                   id="text62"
                                   style="font-variant:normal;font-weight:normal;font-size:9.96259975px;font-family:CMR10;-inkscape-font-specification:CMR10;writing-mode:lr-tb;fill:#000000;fill-opacity:1;fill-rule:nonzero;stroke:none"
                                   transform="matrix(1,0,0,-1,186.944,580.251)"><tspan
                                   id="tspan60"
                                   y="0"
                                   x="0 7.4719501 10.23956 14.114016 18.541395 24.076616 29.611835 34.039215 36.806828">Altenheim</tspan></text>
<g
                                   transform="translate(186.944,580.251)"
                                   id="g64" /></g></g><g
                               transform="translate(22.554)"
                               id="g66" /></g></g></g><g
                         transform="translate(44.361)"
                         id="g68"><g
                           id="g70"><g
                             id="g72"><g
                               transform="translate(-5.562)"
                               id="g74"><g
                                 id="g76"><g
                                   transform="translate(-248.297,-580.251)"
                                   id="g78"><text
                                   id="text82"
                                   style="font-variant:normal;font-weight:normal;font-size:9.96259975px;font-family:CMR10;-inkscape-font-specification:CMR10;writing-mode:lr-tb;fill:#000000;fill-opacity:1;fill-rule:nonzero;stroke:none"
                                   transform="matrix(1,0,0,-1,248.297,580.251)"><tspan
                                   id="tspan80"
                                   y="0"
                                   x="0 3.9292495 8.3566284">sei</tspan></text>
<g
                                   transform="translate(248.297,580.251)"
                                   id="g84" /></g></g><g
                                 transform="translate(5.562)"
                                 id="g86" /></g></g></g><g
                           transform="translate(24.298)"
                           id="g88"><g
                             id="g90"><g
                               id="g92"><g
                                 transform="translate(-2.491)"
                                 id="g94"><g
                                   id="g96"><g
                                   transform="translate(-275.666,-580.251)"
                                   id="g98"><text
                                   id="text102"
                                   style="font-variant:normal;font-weight:normal;font-size:9.96259975px;font-family:CMR10;-inkscape-font-specification:CMR10;writing-mode:lr-tb;fill:#000000;fill-opacity:1;fill-rule:nonzero;stroke:none"
                                   transform="matrix(1,0,0,-1,275.666,580.251)"><tspan
                                   id="tspan100"
                                   y="0"
                                   x="0">”</tspan></text>
<g
                                   transform="translate(275.666,580.251)"
                                   id="g104" /></g></g><g
                                   transform="translate(2.491)"
                                   id="g106" /></g></g></g><g
                             transform="translate(25.1)"
                             id="g108"><g
                               id="g110"><g
                                 id="g112"><g
                                   transform="translate(-6.365)"
                                   id="g114"><g
                                   id="g116"><g
                                   transform="translate(-296.892,-580.251)"
                                   id="g118"><text
                                   id="text122"
                                   style="font-variant:normal;font-weight:normal;font-size:9.96259975px;font-family:CMR10;-inkscape-font-specification:CMR10;writing-mode:lr-tb;fill:#000000;fill-opacity:1;fill-rule:nonzero;stroke:none"
                                   transform="matrix(1,0,0,-1,296.892,580.251)"><tspan
                                   id="tspan120"
                                   y="0"
                                   x="0 4.4273796 7.1949897">ein</tspan></text>
<g
                                   transform="translate(296.892,580.251)"
                                   id="g124" /></g></g><g
                                   transform="translate(6.365)"
                                   id="g126" /></g></g></g><g
                               transform="translate(53.992)"
                               id="g128"><g
                                 id="g130"><g
                                   id="g132"><g
                                   transform="translate(-31.382)"
                                   id="g134"><g
                                   id="g136"><g
                                   transform="translate(-325.867,-580.251)"
                                   id="g138"><text
                                   id="text142"
                                   style="font-variant:normal;font-weight:normal;font-size:9.96259975px;font-family:CMR10;-inkscape-font-specification:CMR10;writing-mode:lr-tb;fill:#000000;fill-opacity:1;fill-rule:nonzero;stroke:none"
                                   transform="matrix(1,0,0,-1,325.867,580.251)"><tspan
                                   id="tspan140"
                                   y="0"
                                   x="0 6.7805457 10.682896 15.110275 19.039524 22.91398 25.681591 30.662889 35.090271 40.071571 46.164696 49.209267 53.636646 58.894905">Prestigeobjekt</tspan></text>
<g
                                   transform="translate(325.867,580.251)"
                                   id="g144" /></g></g><g
                                   transform="translate(31.382)"
                                   id="g146" /></g></g></g><g
                                 transform="translate(55.376)"
                                 id="g148"><g
                                   id="g150"><g
                                   id="g152"><g
                                   transform="translate(-7.749)"
                                   id="g154"><g
                                   id="g156"><g
                                   transform="translate(-404.876,-580.251)"
                                   id="g158"><text
                                   id="text162"
                                   style="font-variant:normal;font-weight:normal;font-size:9.96259975px;font-family:CMR10;-inkscape-font-specification:CMR10;writing-mode:lr-tb;fill:#000000;fill-opacity:1;fill-rule:nonzero;stroke:none"
                                   transform="matrix(1,0,0,-1,404.876,580.251)"><tspan
                                   id="tspan160"
                                   y="0"
                                   x="0 4.9793077 9.9606075">von</tspan></text>
<g
                                   transform="translate(404.876,580.251)"
                                   id="g164" /></g></g><g
                                   transform="translate(7.749)"
                                   id="g166" /></g></g></g><g
                                   transform="translate(30.096)"
                                   id="g168"><g
                                   id="g170"><g
                                   id="g172"><g
                                   transform="translate(-6.103)"
                                   id="g174"><g
                                   id="g176"><g
                                   transform="translate(-436.618,-580.251)"
                                   id="g178"><text
                                   id="text182"
                                   style="font-variant:normal;font-weight:normal;font-size:9.96259975px;font-family:CMR10;-inkscape-font-specification:CMR10;writing-mode:lr-tb;fill:#000000;fill-opacity:1;fill-rule:nonzero;stroke:none"
                                   transform="matrix(1,0,0,-1,436.618,580.251)"><tspan
                                   id="tspan180"
                                   y="0"
                                   x="0 2.7676103 8.3028307">ihr</tspan></text>
<g
                                   transform="translate(436.618,580.251)"
                                   id="g184" /></g></g><g
                                   transform="translate(6.103)"
                                   id="g186" /></g></g></g><g
                                   transform="translate(30.649)"
                                   id="g188"><g
                                   id="g190"><g
                                   id="g192"><g
                                   transform="translate(-8.303)"
                                   id="g194"><g
                                   id="g196"><g
                                   transform="translate(-465.067,-580.251)"
                                   id="g198"><text
                                   id="text202"
                                   style="font-variant:normal;font-weight:normal;font-size:9.96259975px;font-family:CMR10;-inkscape-font-specification:CMR10;writing-mode:lr-tb;fill:#000000;fill-opacity:1;fill-rule:nonzero;stroke:none"
                                   transform="matrix(1,0,0,-1,465.067,580.251)"><tspan
                                   id="tspan200"
                                   y="0"
                                   x="0 5.5352206 11.070441">und</tspan></text>
<g
                                   transform="translate(465.067,580.251)"
                                   id="g204" /></g></g><g
                                   transform="translate(8.303)"
                                   id="g206" /></g></g></g><g
                                   transform="translate(41.718)"
                                   id="g208"><g
                                   id="g210"><g
                                   id="g212"><g
                                   transform="translate(-17.172)"
                                   id="g214"><g
                                   id="g216"><g
                                   transform="translate(-497.916,-580.251)"
                                   id="g218"><text
                                   id="text222"
                                   style="font-variant:normal;font-weight:normal;font-size:9.96259975px;font-family:CMR10;-inkscape-font-specification:CMR10;writing-mode:lr-tb;fill:#000000;fill-opacity:1;fill-rule:nonzero;stroke:none"
                                   transform="matrix(1,0,0,-1,497.916,580.251)"><tspan
                                   id="tspan220"
                                   y="0"
                                   x="0 4.9812999 10.516521 16.051741 20.47912 24.381472 28.808851">anderen</tspan></text>
<g
                                   transform="translate(497.916,580.251)"
                                   id="g224" /></g></g><g
                                   transform="translate(17.172)"
                                   id="g226" /></g></g></g><g
                                   transform="translate(35.907)"
                                   id="g228"><g
                                   id="g230"><g
                                   id="g232"><g
                                   transform="translate(-2.491)"
                                   id="g234"><g
                                   id="g236"><g
                                   transform="translate(-548.504,-580.251)"
                                   id="g238"><text
                                   id="text242"
                                   style="font-variant:normal;font-weight:normal;font-size:9.96259975px;font-family:CMR10;-inkscape-font-specification:CMR10;writing-mode:lr-tb;fill:#000000;fill-opacity:1;fill-rule:nonzero;stroke:none"
                                   transform="matrix(1,0,0,-1,548.504,580.251)"><tspan
                                   id="tspan240"
                                   y="0"
                                   x="0">”</tspan></text>
<g
                                   transform="translate(548.504,580.251)"
                                   id="g244" /></g></g><g
                                   transform="translate(2.491)"
                                   id="g246" /></g></g></g><g
                                   transform="translate(20.119)"
                                   id="g248"><g
                                   id="g250"><g
                                   id="g252"><g
                                   transform="translate(-1.384)"
                                   id="g254"><g
                                   id="g256"><g
                                   transform="translate(-569.73,-580.251)"
                                   id="g258"><text
                                   id="text262"
                                   style="font-variant:normal;font-weight:normal;font-size:9.96259975px;font-family:CMR10;-inkscape-font-specification:CMR10;writing-mode:lr-tb;fill:#000000;fill-opacity:1;fill-rule:nonzero;stroke:none"
                                   transform="matrix(1,0,0,-1,569.73,580.251)"><tspan
                                   id="tspan260"
                                   y="0"
                                   x="0">.</tspan></text>
<g
                                   transform="translate(569.73,580.251)"
                                   id="g264" /></g></g><g
                                   transform="translate(1.384)"
                                   id="g266" /></g></g></g><g
                                   transform="translate(-419.081)"
                                   id="g268" /></g></g></g></g></g></g></g></g></g></g></g></g><g
                     transform="translate(211.305,2.681)"
                     id="g270" /></g></g></g><g
               id="g272"><g
                 id="g274"><g
                   id="g276" /><g
                   id="g278" /><g
                   id="g280" /><g
                   id="g282" /><g
                   id="g284"><path
                     id="path286"
                     style="fill:none;stroke:#000000;stroke-width:0.3985;stroke-linecap:round;stroke-linejoin:miter;stroke-miterlimit:10;stroke-dasharray:none;stroke-opacity:1"
                     d="m -157.82687,6.09732 -2.40628,10.36035 c -0.32174,1.38526 -1.73482,2.5082 -3.15625,2.5082 h -31.95011 c -1.42142,0 -2.8345,-1.12294 -3.15623,-2.5082 l -1.95529,-8.41853" /><g
                     transform="matrix(-0.22635,-0.97455,0.97455,-0.22635,-200.45102,8.03914)"
                     id="g288"><g
                       id="g290"><path
                         id="path292"
                         style="fill:#000000;fill-opacity:1;fill-rule:nonzero;stroke:none"
                         d="M 1.99252,0 -1.19551,1.59401 0,0 -1.19551,-1.59401" /></g></g></g><g
                   id="g294"><g
                     id="g296"><path
                       id="path298"
                       style="fill:#ffffff;fill-opacity:0.5;fill-rule:nonzero;stroke:none"
                       d="m -164.19577,26.02208 h -30.33733 c -1.10048,0 -1.99255,-0.89208 -1.99255,-1.99255 v -4.27214 c 0,-1.10049 0.89207,-1.99256 1.99255,-1.99256 h 30.33733 c 1.10047,0 1.99255,0.89207 1.99255,1.99256 v 4.27214 c 0,1.10047 -0.89208,1.99255 -1.99255,1.99255 z" /></g><g
                     transform="matrix(0.7,0,0,0.7,-195.022,20.016)"
                     id="g300"><g
                       id="g302"><g
                         transform="translate(-168.316,-602.948)"
                         id="g304"><text
                           id="text308"
                           style="font-variant:normal;font-weight:normal;font-size:6.97380018px;font-family:CMR7;-inkscape-font-specification:CMR7;writing-mode:lr-tb;fill:#000000;fill-opacity:1;fill-rule:nonzero;stroke:none"
                           transform="matrix(1,0,0,-1,168.316,602.948)"><tspan
                             id="tspan306"
                             y="0"
                             x="0 5.8810058 11.023485 16.710619 18.965946 24.846952 30.727957 32.983284 38.864288">ART.NX.NN</tspan></text>
<g
                           transform="translate(168.316,602.948)"
                           id="g310" /></g></g><g
                       transform="translate(195.022,-20.016)"
                       id="g312" /></g></g></g></g><g
               id="g314"><g
                 id="g316"><g
                   id="g318" /><g
                   id="g320" /><g
                   id="g322" /><g
                   id="g324" /><g
                   id="g326"><path
                     id="path328"
                     style="fill:none;stroke:#000000;stroke-width:0.3985;stroke-linecap:round;stroke-linejoin:miter;stroke-miterlimit:10;stroke-dasharray:none;stroke-opacity:1"
                     d="m -113.46487,6.09732 -2.39611,17.19386 c -0.32734,2.34928 -2.51317,4.2537 -4.88223,4.2537 h -25.82021 c -2.36906,0 -4.5549,-1.90442 -4.88224,-4.2537 l -2.12081,-15.21797" /><g
                     transform="matrix(-0.13817,-0.99165,0.99165,-0.13817,-153.56645,8.07321)"
                     id="g330"><g
                       id="g332"><path
                         id="path334"
                         style="fill:#000000;fill-opacity:1;fill-rule:nonzero;stroke:none"
                         d="M 1.99252,0 -1.19551,1.59401 0,0 -1.19551,-1.59401" /></g></g></g><g
                   id="g336"><g
                     id="g338"><path
                       id="path340"
                       style="fill:#ffffff;fill-opacity:0.5;fill-rule:nonzero;stroke:none"
                       d="m -86.80885,34.6011 h -93.68889 c -1.10048,0 -1.99256,-0.89207 -1.99256,-1.99255 v -4.27214 c 0,-1.10048 0.89208,-1.99255 1.99256,-1.99255 h 93.68889 c 1.10046,0 1.99255,0.89207 1.99255,1.99255 v 4.27214 c 0,1.10048 -0.89209,1.99255 -1.99255,1.99255 z" /></g><g
                     transform="matrix(0.7,0,0,0.7,-180.987,28.595)"
                     id="g342"><g
                       id="g344"><g
                         transform="translate(-182.351,-611.527)"
                         id="g346"><text
                           id="text350"
                           style="font-variant:normal;font-weight:normal;font-size:6.97380018px;font-family:CMR7;-inkscape-font-specification:CMR7;writing-mode:lr-tb;fill:#000000;fill-opacity:1;fill-rule:nonzero;stroke:none"
                           transform="matrix(1,0,0,-1,182.351,611.527)"><tspan
                             id="tspan348"
                             y="0"
                             x="0 5.8810058 11.762012 14.017338 19.898344 25.779348 28.034676 33.91568 39.056068 41.311398 45.711864 48.589951 55.757622 61.112804 66.993813 69.249138 74.17543 80.270531 82.525856 88.40686 94.287865 99.428253 102.30634 108.18735 110.44267 115.4659 121.34691 126.4873 129.36539">NN.NX.VF.SIMPX.LK.VXFIN.VAFIN</tspan></text>
<g
                           transform="translate(182.351,611.527)"
                           id="g352" /></g></g><g
                       transform="translate(180.987,-28.595)"
                       id="g354" /></g></g></g></g><g
               id="g356"><g
                 id="g358"><g
                   id="g360"><path
                     id="path362"
                     style="fill:#ffffff;fill-opacity:0.5;fill-rule:nonzero;stroke:none"
                     d="m -101.74998,84.26743 h -15.45954 c -1.10048,0 -1.99255,-0.89208 -1.99255,-1.99256 v -4.27214 c 0,-1.10048 0.89207,-1.99255 1.99255,-1.99255 h 15.45954 c 1.10048,0 1.99255,0.89207 1.99255,1.99255 v 4.27214 c 0,1.10048 -0.89207,1.99256 -1.99255,1.99256 z" /></g><g
                   transform="matrix(0.7,0,0,0.7,-117.7,78.261)"
                   id="g364"><g
                     id="g366"><g
                       transform="translate(-245.638,-661.193)"
                       id="g368"><text
                         id="text372"
                         style="font-variant:normal;font-weight:normal;font-size:6.97380018px;font-family:CMR7;-inkscape-font-specification:CMR7;writing-mode:lr-tb;fill:#000000;fill-opacity:1;fill-rule:nonzero;stroke:none"
                         transform="matrix(1,0,0,-1,245.638,661.193)"><tspan
                           id="tspan370"
                           y="0"
                           x="0 5.5678821 11.683905 17.799927">ROOT</tspan></text>
<g
                         transform="translate(245.638,661.193)"
                         id="g374" /></g></g><g
                     transform="translate(117.7,-78.261)"
                     id="g376" /></g></g><g
                 id="g378"><path
                   id="path380"
                   style="fill:none;stroke:#000000;stroke-width:0.3985;stroke-linecap:round;stroke-linejoin:miter;stroke-miterlimit:10;stroke-dasharray:none;stroke-opacity:1"
                   d="M -109.47977,76.01018 V 8.08984" /><g
                   transform="rotate(-90,-50.694965,58.784805)"
                   id="g382"><g
                     id="g384"><path
                       id="path386"
                       style="fill:#000000;fill-opacity:1;fill-rule:nonzero;stroke:none"
                       d="M 1.99252,0 -1.19551,1.59401 0,0 -1.19551,-1.59401" /></g></g></g></g><g
               id="g388"><g
                 id="g390"><g
                   id="g392" /><g
                   id="g394" /><g
                   id="g396" /><g
                   id="g398" /><g
                   id="g400"><path
                     id="path402"
                     style="fill:none;stroke:#000000;stroke-width:0.3985;stroke-linecap:round;stroke-linejoin:miter;stroke-miterlimit:10;stroke-dasharray:none;stroke-opacity:1"
                     d="m -105.49466,6.09732 2.4063,10.36035 c 0.32171,1.38526 1.7348,2.5082 3.15623,2.5082 h 9.1879 c 1.42143,0 2.83452,-1.12294 3.15623,-2.5082 l 1.9553,-8.41853" /><g
                     transform="matrix(0.22635,-0.97455,0.97455,0.22635,-85.63272,8.03914)"
                     id="g404"><g
                       id="g406"><path
                         id="path408"
                         style="fill:#000000;fill-opacity:1;fill-rule:nonzero;stroke:none"
                         d="M 1.99252,0 -1.19551,1.59401 0,0 -1.19551,-1.59401" /></g></g></g><g
                   id="g410"><g
                     id="g412"><path
                       id="path414"
                       style="fill:#ffffff;fill-opacity:0.5;fill-rule:nonzero;stroke:none"
                       d="m -59.68352,26.02208 h -71.30929 c -1.10047,0 -1.99256,-0.89208 -1.99256,-1.99255 v -4.27214 c 0,-1.10049 0.89209,-1.99256 1.99256,-1.99256 h 71.30929 c 1.10047,0 1.99256,0.89207 1.99256,1.99256 v 4.27214 c 0,1.10047 -0.89209,1.99255 -1.99256,1.99255 z" /></g><g
                     transform="matrix(0.7,0,0,0.7,-131.483,20.016)"
                     id="g416"><g
                       id="g418"><g
                         transform="translate(-231.855,-602.948)"
                         id="g420"><text
                           id="text424"
                           style="font-variant:normal;font-weight:normal;font-size:6.97380018px;font-family:CMR7;-inkscape-font-specification:CMR7;writing-mode:lr-tb;fill:#000000;fill-opacity:1;fill-rule:nonzero;stroke:none"
                           transform="matrix(1,0,0,-1,231.855,602.948)"><tspan
                             id="tspan422"
                             y="0"
                             x="0 3.9715791 7.0846834 9.3400106 13.740479 16.618565 23.786238 29.141418 35.022423 37.277752 42.204044 48.299145 50.55447 56.435478 62.316483 67.456871 70.334961 76.215965 78.471291 83.494514 89.375526 94.515915 97.393997">$(.SIMPX.LK.VXFIN.VAFIN</tspan></text>
<g
                           transform="translate(231.855,602.948)"
                           id="g426" /></g></g><g
                       transform="translate(131.483,-20.016)"
                       id="g428" /></g></g></g></g><g
               id="g430"><g
                 id="g432"><g
                   id="g434" /><g
                   id="g436" /><g
                   id="g438" /><g
                   id="g440" /><g
                   id="g442"><path
                     id="path444"
                     style="fill:none;stroke:#000000;stroke-width:0.3985;stroke-linecap:round;stroke-linejoin:miter;stroke-miterlimit:10;stroke-dasharray:none;stroke-opacity:1"
                     d="m -105.49466,6.09732 2.39359,24.04547 c 0.32875,3.30331 3.28389,5.98111 6.60057,5.98111 h 27.42527 c 3.31669,0 6.27183,-2.6778 6.60056,-5.98111 l 2.19609,-22.06097" /><g
                     transform="matrix(0.09912,-0.99597,0.99597,0.09912,-60.27858,8.08182)"
                     id="g446"><g
                       id="g448"><path
                         id="path450"
                         style="fill:#000000;fill-opacity:1;fill-rule:nonzero;stroke:none"
                         d="M 1.99252,0 -1.19551,1.59401 0,0 -1.19551,-1.59401" /></g></g></g><g
                   id="g452"><g
                     id="g454"><path
                       id="path456"
                       style="fill:#ffffff;fill-opacity:0.5;fill-rule:nonzero;stroke:none"
                       d="m -67.61919,43.18013 h -30.33732 c -1.10047,0 -1.99256,-0.89207 -1.99256,-1.99255 v -4.27216 c 0,-1.10046 0.89209,-1.99255 1.99256,-1.99255 h 30.33732 c 1.10049,0 1.99256,0.89209 1.99256,1.99255 v 4.27216 c 0,1.10048 -0.89207,1.99255 -1.99256,1.99255 z" /></g><g
                     transform="matrix(0.7,0,0,0.7,-98.447,37.174)"
                     id="g458"><g
                       id="g460"><g
                         transform="translate(-264.891,-620.106)"
                         id="g462"><text
                           id="text466"
                           style="font-variant:normal;font-weight:normal;font-size:6.97380018px;font-family:CMR7;-inkscape-font-specification:CMR7;writing-mode:lr-tb;fill:#000000;fill-opacity:1;fill-rule:nonzero;stroke:none"
                           transform="matrix(1,0,0,-1,264.891,620.106)"><tspan
                             id="tspan464"
                             y="0"
                             x="0 5.8810058 11.023485 16.710619 18.965946 24.846952 30.727957 32.983284 38.864288">ART.NX.NN</tspan></text>
<g
                           transform="translate(264.891,620.106)"
                           id="g468" /></g></g><g
                       transform="translate(98.447,-37.174)"
                       id="g470" /></g></g></g></g><g
               id="g472"><g
                 id="g474"><g
                   id="g476" /><g
                   id="g478" /><g
                   id="g480" /><g
                   id="g482" /><g
                   id="g484"><path
                     id="path486"
                     style="fill:none;stroke:#000000;stroke-width:0.3985;stroke-linecap:round;stroke-linejoin:miter;stroke-miterlimit:10;stroke-dasharray:none;stroke-opacity:1"
                     d="m -105.49466,6.09732 2.3927,30.90348 c 0.32924,4.25381 4.05295,7.70213 8.31725,7.70213 h 77.9864 c 4.2643,0 7.98801,-3.44832 8.31725,-7.70213 L -6.2422,8.08495" /><g
                     transform="matrix(0.07721,-0.99754,0.99754,0.07721,-6.24222,8.08495)"
                     id="g488"><g
                       id="g490"><path
                         id="path492"
                         style="fill:#000000;fill-opacity:1;fill-rule:nonzero;stroke:none"
                         d="M 1.99252,0 -1.19551,1.59401 0,0 -1.19551,-1.59401" /></g></g></g><g
                   id="g494"><g
                     id="g496"><path
                       id="path498"
                       style="fill:#ffffff;fill-opacity:0.5;fill-rule:nonzero;stroke:none"
                       d="m -3.59067,51.75916 h -104.40165 c -1.10047,0 -1.99256,-0.89208 -1.99256,-1.99256 v -4.27215 c 0,-1.10047 0.89209,-1.99256 1.99256,-1.99256 H -3.59067 c 1.10047,0 1.99256,0.89209 1.99256,1.99256 v 4.27215 c 0,1.10048 -0.89209,1.99256 -1.99256,1.99256 z" /></g><g
                     transform="matrix(0.7,0,0,0.7,-108.483,45.753)"
                     id="g500"><g
                       id="g502"><g
                         transform="translate(-254.855,-628.685)"
                         id="g504"><text
                           id="text508"
                           style="font-variant:normal;font-weight:normal;font-size:6.97380018px;font-family:CMR7;-inkscape-font-specification:CMR7;writing-mode:lr-tb;fill:#000000;fill-opacity:1;fill-rule:nonzero;stroke:none"
                           transform="matrix(1,0,0,-1,254.855,628.685)"><tspan
                             id="tspan506"
                             y="0"
                             x="0 5.8810058 11.762012 14.017338 19.898344 25.779348 28.034676 33.91568 39.796688 42.052013 49.219685 54.360073 56.615402 61.015869 63.893955 71.06163 76.416809 82.297813 84.553139 89.479431 95.574532 97.829865 103.71087 109.59187 114.73226 117.61034 123.49136 125.74668 130.76991 136.65091 141.79131 144.66939">NN.NX.NX.MF.SIMPX.LK.VXFIN.VAFIN</tspan></text>
<g
                           transform="translate(254.855,628.685)"
                           id="g510" /></g></g><g
                       transform="translate(108.483,-45.753)"
                       id="g512" /></g></g></g></g><g
               id="g514"><g
                 id="g516"><g
                   id="g518" /><g
                   id="g520" /><g
                   id="g522" /><g
                   id="g524" /><g
                   id="g526"><path
                     id="path528"
                     style="fill:none;stroke:#000000;stroke-width:0.3985;stroke-linecap:round;stroke-linejoin:miter;stroke-miterlimit:10;stroke-dasharray:none;stroke-opacity:1"
                     d="m 75.39882,6.09732 -2.40628,10.36035 c -0.32172,1.38526 -1.7348,2.5082 -3.15624,2.5082 H 54.85059 c -1.42144,0 -2.83452,-1.12294 -3.15624,-2.5082 L 49.73906,8.03914" /><g
                     transform="matrix(-0.22635,-0.97455,0.97455,-0.22635,49.73907,8.03914)"
                     id="g530"><g
                       id="g532"><path
                         id="path534"
                         style="fill:#000000;fill-opacity:1;fill-rule:nonzero;stroke:none"
                         d="M 1.99252,0 -1.19551,1.59401 0,0 -1.19551,-1.59401" /></g></g></g><g
                   id="g536"><g
                     id="g538"><path
                       id="path540"
                       style="fill:#ffffff;fill-opacity:0.5;fill-rule:nonzero;stroke:none"
                       d="M 92.65376,26.02208 H 32.03311 c -1.10046,0 -1.99255,-0.89208 -1.99255,-1.99255 v -4.27214 c 0,-1.10049 0.89209,-1.99256 1.99255,-1.99256 h 60.62065 c 1.10048,0 1.99256,0.89207 1.99256,1.99256 v 4.27214 c 0,1.10047 -0.89208,1.99255 -1.99256,1.99255 z" /></g><g
                     transform="matrix(0.7,0,0,0.7,31.541,20.016)"
                     id="g542"><g
                       id="g544"><g
                         transform="translate(-394.879,-602.948)"
                         id="g546"><text
                           id="text550"
                           style="font-variant:normal;font-weight:normal;font-size:6.97380018px;font-family:CMR7;-inkscape-font-specification:CMR7;writing-mode:lr-tb;fill:#000000;fill-opacity:1;fill-rule:nonzero;stroke:none"
                           transform="matrix(1,0,0,-1,394.879,602.948)"><tspan
                             id="tspan548"
                             y="0"
                             x="0 5.8810058 11.236187 16.591368 22.375437 24.630764 29.985945 35.866951 38.122276 44.003284 49.884289 52.139614 58.020622 63.901627 66.156952 71.512138 76.867317 82.222496">APPR.PX.NX.NX.PPER</tspan></text>
<g
                           transform="translate(394.879,602.948)"
                           id="g552" /></g></g><g
                       transform="translate(-31.541,-20.016)"
                       id="g554" /></g></g></g></g><g
               id="g556"><g
                 id="g558"><g
                   id="g560" /><g
                   id="g562" /><g
                   id="g564" /><g
                   id="g566" /><g
                   id="g568"><path
                     id="path570"
                     style="fill:none;stroke:#000000;stroke-width:0.3985;stroke-linecap:round;stroke-linejoin:miter;stroke-miterlimit:10;stroke-dasharray:none;stroke-opacity:1"
                     d="M -2.10326,6.09732 0.28989,33.5721 c 0.32898,3.7784 3.66838,6.84132 7.45887,6.84132 h 61.78313 c 3.7905,0 7.1299,-3.06292 7.45888,-6.84132 L 79.21098,8.0835" /><g
                     transform="matrix(0.0868,-0.99681,0.99681,0.0868,79.21097,8.0835)"
                     id="g572"><g
                       id="g574"><path
                         id="path576"
                         style="fill:#000000;fill-opacity:1;fill-rule:nonzero;stroke:none"
                         d="M 1.99252,0 -1.19551,1.59401 0,0 -1.19551,-1.59401" /></g></g></g><g
                   id="g578"><g
                     id="g580"><path
                       id="path582"
                       style="fill:#ffffff;fill-opacity:0.5;fill-rule:nonzero;stroke:none"
                       d="M 75.04803,47.46965 H 2.23262 c -1.10048,0 -1.99255,-0.89209 -1.99255,-1.99255 v -4.27216 c 0,-1.10048 0.89207,-1.99255 1.99255,-1.99255 h 72.81541 c 1.10048,0 1.99256,0.89207 1.99256,1.99255 v 4.27216 c 0,1.10046 -0.89208,1.99255 -1.99256,1.99255 z" /></g><g
                     transform="matrix(0.7,0,0,0.7,1.741,41.463)"
                     id="g584"><g
                       id="g586"><g
                         transform="translate(-365.079,-624.395)"
                         id="g588"><text
                           id="text592"
                           style="font-variant:normal;font-weight:normal;font-size:6.97380018px;font-family:CMR7;-inkscape-font-specification:CMR7;writing-mode:lr-tb;fill:#000000;fill-opacity:1;fill-rule:nonzero;stroke:none"
                           transform="matrix(1,0,0,-1,365.079,624.395)"><tspan
                             id="tspan590"
                             y="0"
                             x="0 5.3551812 10.710362 16.065542 21.849613 24.10494 29.985945 35.866951 38.122276 44.003284 49.884289 52.139614 57.494797 63.375801 65.631126 71.512138 77.393143 79.648468 85.529472 91.410477 93.665802 99.546814">PPER.NX.NX.PX.NX.NX.NN</tspan></text>
<g
                           transform="translate(365.079,624.395)"
                           id="g594" /></g></g><g
                       transform="translate(-1.741,-41.463)"
                       id="g596" /></g></g></g></g><g
               id="g598"><g
                 id="g600"><g
                   id="g602" /><g
                   id="g604" /><g
                   id="g606" /><g
                   id="g608" /><g
                   id="g610"><path
                     id="path612"
                     style="fill:none;stroke:#000000;stroke-width:0.3985;stroke-linecap:round;stroke-linejoin:miter;stroke-miterlimit:10;stroke-dasharray:none;stroke-opacity:1"
                     d="m 83.36903,6.09732 2.39612,17.19386 c 0.32733,2.34928 2.51317,4.2537 4.88223,4.2537 h 12.10758 c 2.36905,0 4.55488,-1.90442 4.88223,-4.2537 L 109.758,8.07321" /><g
                     transform="matrix(0.13817,-0.99165,0.99165,0.13817,109.75798,8.07321)"
                     id="g614"><g
                       id="g616"><path
                         id="path618"
                         style="fill:#000000;fill-opacity:1;fill-rule:nonzero;stroke:none"
                         d="M 1.99252,0 -1.19551,1.59401 0,0 -1.19551,-1.59401" /></g></g></g><g
                   id="g620"><g
                     id="g622"><path
                       id="path624"
                       style="fill:#ffffff;fill-opacity:0.5;fill-rule:nonzero;stroke:none"
                       d="M 120.71559,34.6011 H 72.68675 c -1.10048,0 -1.99255,-0.89207 -1.99255,-1.99255 v -4.27214 c 0,-1.10048 0.89207,-1.99255 1.99255,-1.99255 h 48.02884 c 1.10047,0 1.99256,0.89207 1.99256,1.99255 v 4.27214 c 0,1.10048 -0.89209,1.99255 -1.99256,1.99255 z" /></g><g
                     transform="matrix(0.7,0,0,0.7,72.194,28.595)"
                     id="g626"><g
                       id="g628"><g
                         transform="translate(-435.532,-611.527)"
                         id="g630"><text
                           id="text634"
                           style="font-variant:normal;font-weight:normal;font-size:6.97380018px;font-family:CMR7;-inkscape-font-specification:CMR7;writing-mode:lr-tb;fill:#000000;fill-opacity:1;fill-rule:nonzero;stroke:none"
                           transform="matrix(1,0,0,-1,435.532,611.527)"><tspan
                             id="tspan632"
                             y="0"
                             x="0 5.8789134 11.994936 17.875942 20.131268 26.012274 31.89328 34.148605 40.029613 45.910618 48.165943 53.521126 58.876305 64.231491">KON.NX.NX.PPER</tspan></text>
<g
                           transform="translate(435.532,611.527)"
                           id="g636" /></g></g><g
                       transform="translate(-72.194,-28.595)"
                       id="g638" /></g></g></g></g><g
               id="g640"><g
                 id="g642"><g
                   id="g644" /><g
                   id="g646" /><g
                   id="g648" /><g
                   id="g650" /><g
                   id="g652"><path
                     id="path654"
                     style="fill:none;stroke:#000000;stroke-width:0.3985;stroke-linecap:round;stroke-linejoin:miter;stroke-miterlimit:10;stroke-dasharray:none;stroke-opacity:1"
                     d="M 83.36903,6.09732 85.7622,33.5721 c 0.32899,3.7784 3.66839,6.84132 7.45888,6.84132 h 48.6793 c 3.79049,0 7.12989,-3.06292 7.45887,-6.84132 l 2.22022,-25.4886" /><g
                     transform="matrix(0.0868,-0.99681,0.99681,0.0868,151.57945,8.0835)"
                     id="g656"><g
                       id="g658"><path
                         id="path660"
                         style="fill:#000000;fill-opacity:1;fill-rule:nonzero;stroke:none"
                         d="M 1.99252,0 -1.19551,1.59401 0,0 -1.19551,-1.59401" /></g></g></g><g
                   id="g662"><g
                     id="g664"><path
                       id="path666"
                       style="fill:#ffffff;fill-opacity:0.5;fill-rule:nonzero;stroke:none"
                       d="M 144.64561,47.46965 H 90.47583 c -1.10048,0 -1.99255,-0.89209 -1.99255,-1.99255 v -4.27216 c 0,-1.10048 0.89207,-1.99255 1.99255,-1.99255 h 54.16978 c 1.10049,0 1.99256,0.89207 1.99256,1.99255 v 4.27216 c 0,1.10046 -0.89207,1.99255 -1.99256,1.99255 z" /></g><g
                     transform="matrix(0.7,0,0,0.7,89.983,41.463)"
                     id="g668"><g
                       id="g670"><g
                         transform="translate(-453.321,-624.395)"
                         id="g672"><text
                           id="text676"
                           style="font-variant:normal;font-weight:normal;font-size:6.97380018px;font-family:CMR7;-inkscape-font-specification:CMR7;writing-mode:lr-tb;fill:#000000;fill-opacity:1;fill-rule:nonzero;stroke:none"
                           transform="matrix(1,0,0,-1,453.321,624.395)"><tspan
                             id="tspan674"
                             y="0"
                             x="0 5.3551812 8.2332687 12.633736 14.889063 20.770069 26.651073 28.906401 34.787407 40.668411 42.92374 48.804745 54.685749 56.941078 62.296257 67.651436 73.006622">PIS.NX.NX.NX.PPER</tspan></text>
<g
                           transform="translate(453.321,624.395)"
                           id="g678" /></g></g><g
                       transform="translate(-89.983,-41.463)"
                       id="g680" /></g></g></g></g><g
               id="g682"><g
                 id="g684"><g
                   id="g686" /><g
                   id="g688" /><g
                   id="g690" /><g
                   id="g692" /><g
                   id="g694"><path
                     id="path696"
                     style="fill:none;stroke:#000000;stroke-width:0.3985;stroke-linecap:round;stroke-linejoin:miter;stroke-miterlimit:10;stroke-dasharray:none;stroke-opacity:1"
                     d="m -105.49466,6.09732 2.392,43.93846 c 0.32962,6.05722 5.5132,10.96744 11.57802,10.96744 H 173.6899 c 6.0648,0 11.2484,-4.91022 11.57801,-10.96744 l 2.28371,-41.94842" /><g
                     transform="matrix(0.05435,-0.99875,0.99875,0.05435,187.5516,8.08736)"
                     id="g698"><g
                       id="g700"><path
                         id="path702"
                         style="fill:#000000;fill-opacity:1;fill-rule:nonzero;stroke:none"
                         d="M 1.99252,0 -1.19551,1.59401 0,0 -1.19551,-1.59401" /></g></g></g><g
                   id="g704"><g
                     id="g706"><path
                       id="path708"
                       style="fill:#ffffff;fill-opacity:0.5;fill-rule:nonzero;stroke:none"
                       d="M 76.73727,68.05945 H 5.42798 c -1.10047,0 -1.99256,-0.89209 -1.99256,-1.99255 v -4.27216 c 0,-1.10047 0.89209,-1.99255 1.99256,-1.99255 h 71.30929 c 1.10047,0 1.99256,0.89208 1.99256,1.99255 v 4.27216 c 0,1.10046 -0.89209,1.99255 -1.99256,1.99255 z" /></g><g
                     transform="matrix(0.7,0,0,0.7,4.936,62.053)"
                     id="g710"><g
                       id="g712"><g
                         transform="translate(-368.274,-644.985)"
                         id="g714"><text
                           id="text718"
                           style="font-variant:normal;font-weight:normal;font-size:6.97380018px;font-family:CMR7;-inkscape-font-specification:CMR7;writing-mode:lr-tb;fill:#000000;fill-opacity:1;fill-rule:nonzero;stroke:none"
                           transform="matrix(1,0,0,-1,368.274,644.985)"><tspan
                             id="tspan716"
                             y="0"
                             x="0 3.9715791 7.0846834 9.3400106 13.740479 16.618565 23.786238 29.141418 35.022423 37.277752 42.204044 48.299145 50.55447 56.435478 62.316483 67.456871 70.334961 76.215965 78.471291 83.494514 89.375526 94.515915 97.393997">$(.SIMPX.LK.VXFIN.VAFIN</tspan></text>
<g
                           transform="translate(368.274,644.985)"
                           id="g720" /></g></g><g
                       transform="translate(-4.936,-62.053)"
                       id="g722" /></g></g></g></g><g
               id="g724"><g
                 id="g726"><g
                   id="g728" /><g
                   id="g730" /><g
                   id="g732" /><g
                   id="g734" /><g
                   id="g736"><path
                     id="path738"
                     style="fill:none;stroke:#000000;stroke-width:0.3985;stroke-linecap:round;stroke-linejoin:miter;stroke-miterlimit:10;stroke-dasharray:none;stroke-opacity:1"
                     d="m -105.49466,6.09732 2.392,52.51388 c 0.32962,7.24355 6.4734,13.11544 13.7227,13.11544 h 281.0444 c 7.24929,0 13.39307,-5.87189 13.72271,-13.11544 L 207.6885,8.08827" /><g
                     transform="matrix(0.04549,-0.9992,0.9992,0.04549,207.68849,8.08827)"
                     id="g740"><g
                       id="g742"><path
                         id="path744"
                         style="fill:#000000;fill-opacity:1;fill-rule:nonzero;stroke:none"
                         d="M 1.99252,0 -1.19551,1.59401 0,0 -1.19551,-1.59401" /></g></g></g><g
                   id="g746"><g
                     id="g748"><path
                       id="path750"
                       style="fill:#ffffff;fill-opacity:0.5;fill-rule:nonzero;stroke:none"
                       d="M 86.4966,78.78287 H 15.78786 c -1.10048,0 -1.99256,-0.89209 -1.99256,-1.99256 v -4.27215 c 0,-1.10048 0.89208,-1.99256 1.99256,-1.99256 H 86.4966 c 1.10048,0 1.99255,0.89208 1.99255,1.99256 v 4.27215 c 0,1.10047 -0.89207,1.99256 -1.99255,1.99256 z" /></g><g
                     transform="matrix(0.7,0,0,0.7,15.296,72.776)"
                     id="g752"><g
                       id="g754"><g
                         transform="translate(-378.634,-655.708)"
                         id="g756"><text
                           id="text760"
                           style="font-variant:normal;font-weight:normal;font-size:6.97380018px;font-family:CMR7;-inkscape-font-specification:CMR7;writing-mode:lr-tb;fill:#000000;fill-opacity:1;fill-rule:nonzero;stroke:none"
                           transform="matrix(1,0,0,-1,378.634,655.708)"><tspan
                             id="tspan758"
                             y="0"
                             x="0 3.9715791 6.2269058 8.482233 12.882701 15.760788 22.928459 28.28364 34.164646 36.419971 41.346264 47.441368 49.696693 55.577698 61.458706 66.599091 69.47718 75.358185 77.61351 82.636742 88.517746 93.658134 96.536224">$..SIMPX.LK.VXFIN.VAFIN</tspan></text>
<g
                           transform="translate(378.634,655.708)"
                           id="g762" /></g></g><g
                       transform="translate(-15.296,-72.776)"
                       id="g764" /></g></g></g></g></g></g></g></g></g></svg>